<?xml version="1.0" encoding="UTF-8" standalone="no"?><!DOCTYPE svg PUBLIC "-//W3C//DTD SVG 1.1//EN" "http://www.w3.org/Graphics/SVG/1.1/DTD/svg11.dtd"><svg width="100%" height="100%" viewBox="0 0 963 499" version="1.1" xmlns="http://www.w3.org/2000/svg" xmlns:xlink="http://www.w3.org/1999/xlink" xml:space="preserve" xmlns:serif="http://www.serif.com/" style="fill-rule:evenodd;clip-rule:evenodd;stroke-linecap:round;stroke-linejoin:round;stroke-miterlimit:1.5;"><rect id="Artboard1" x="0" y="0" width="962.564" height="498.079" style="fill:none;"/><g id="Rex"><path d="M446.974,267.89l-35.792,47.563l63.776,11.581l-27.984,-59.144Z" style="fill:#fff;"/><path d="M790.946,296.424l-309.68,-67.747l-20.656,94.42l309.68,67.747l20.656,-94.42Z" style="fill:#fff;"/><path d="M612.746,267.689c0,0 -20.585,10.072 -67.371,-2.523c-35.813,-9.641 -60.105,-17.917 -60.105,-17.917c-25.761,-11.357 -77.695,-17.313 -64.835,-111.575c9.291,-68.099 9.65,-114.248 90.126,-120.743c80.477,-6.495 250.378,65.266 265.187,78.049c14.809,12.782 29.142,31.462 23.265,88.86c-7.874,76.913 -23.53,209.004 -23.53,209.004" style="fill:#fff;stroke:#000;stroke-width:12px;"/><path d="M716.194,172.887c-1.747,8.445 -8.241,14.251 -14.492,12.958c-6.25,-1.294 -9.906,-9.201 -8.159,-17.646c1.748,-8.445 8.242,-14.251 14.493,-12.958c6.25,1.294 9.906,9.2 8.158,17.646Z"/><path d="M792.344,104.049c0,0 24.488,-19.958 51.455,-30.885c43.288,-17.539 72.224,-13.663 72.224,-13.663" style="fill:none;stroke:#000;stroke-width:12px;"/><path d="M935.742,48.564c5.386,1.769 8.323,7.578 6.554,12.964c-1.769,5.386 -7.578,8.323 -12.964,6.554c-5.386,-1.769 -8.323,-7.578 -6.554,-12.964c1.769,-5.386 7.578,-8.323 12.964,-6.554Z" style="stroke:#000;stroke-width:12px;"/></g><g id="Keyboard"><path d="M271.795,370.106l0,36.028l382.848,75.484l76.754,-72.484l0,-10.497" style="fill:#fff;stroke:#000;stroke-width:6px;"/><path d="M363.261,319.891l368.136,77.746l-76.754,50.49l-382.848,-78.021l91.466,-50.215Z" style="fill:#fff;stroke:#000;stroke-width:6px;"/><path d="M654.643,450.127l0,31.491" style="fill:none;stroke:#000;stroke-width:6px;"/><path d="M343.007,331.01l366.971,78.716" style="fill:none;stroke:#000;stroke-width:6px;"/><path d="M322.421,342.171l369.971,79.715" style="fill:none;stroke:#000;stroke-width:6px;"/><path d="M300.39,355.151l371.971,79.716" style="fill:none;stroke:#000;stroke-width:6px;"/><path d="M637.968,427.862l-8.044,6.005l-8.956,6.685" style="fill:none;stroke:#000;stroke-width:6px;"/><path d="M603.115,420.886l-8.044,6.005l-8.956,6.685" style="fill:none;stroke:#000;stroke-width:6px;"/><path d="M569.16,413.542l-8.044,6.004l-8.956,6.685" style="fill:none;stroke:#000;stroke-width:6px;"/><path d="M537.953,406.197l-8.044,6.004l-8.956,6.685" style="fill:none;stroke:#000;stroke-width:6px;"/><path d="M501.596,399.852l-8.044,6.005l-8.956,6.685" style="fill:none;stroke:#000;stroke-width:6px;"/><path d="M466.742,392.876l-8.044,6.005l-8.956,6.685" style="fill:none;stroke:#000;stroke-width:6px;"/><path d="M432.787,385.532l-8.044,6.004l-8.956,6.685" style="fill:none;stroke:#000;stroke-width:6px;"/><path d="M400.58,378.187l-18,12.689" style="fill:none;stroke:#000;stroke-width:6px;"/><path d="M366.56,371.32l-19,12.689" style="fill:none;stroke:#000;stroke-width:6px;"/><path d="M330.707,364.344l-22,12.689" style="fill:none;stroke:#000;stroke-width:6px;"/><path d="M632.884,409.424l-8.044,6.004l-8.956,6.685" style="fill:none;stroke:#000;stroke-width:6px;"/><path d="M598.031,402.448l-8.044,6.004l-8.956,6.685" style="fill:none;stroke:#000;stroke-width:6px;"/><path d="M564.076,395.103l-8.044,6.004l-8.956,6.685" style="fill:none;stroke:#000;stroke-width:6px;"/><path d="M532.869,387.758l-8.044,6.005l-8.956,6.685" style="fill:none;stroke:#000;stroke-width:6px;"/><path d="M496.512,380.414l-8.044,6.004l-8.956,6.685" style="fill:none;stroke:#000;stroke-width:6px;"/><path d="M462.658,373.438l-8.044,6.004l-8.956,6.685" style="fill:none;stroke:#000;stroke-width:6px;"/><path d="M429.703,366.093l-8.044,6.004l-8.956,6.685" style="fill:none;stroke:#000;stroke-width:6px;"/><path d="M397.496,358.748l-18,12.69" style="fill:none;stroke:#000;stroke-width:6px;"/><path d="M364.476,351.881l-19,12.689" style="fill:none;stroke:#000;stroke-width:6px;"/><path d="M659.643,399.344l-16,11.689" style="fill:none;stroke:#000;stroke-width:6px;"/><path d="M623.789,391.368l-16,11.689" style="fill:none;stroke:#000;stroke-width:6px;"/><path d="M588.834,385.023l-15,10.689" style="fill:none;stroke:#000;stroke-width:6px;"/><path d="M559.627,377.678l-16,11.69" style="fill:none;stroke:#000;stroke-width:6px;"/><path d="M522.27,370.334l-15,10.689" style="fill:none;stroke:#000;stroke-width:6px;"/><path d="M489.417,362.358l-16,11.689" style="fill:none;stroke:#000;stroke-width:6px;"/><path d="M455.461,356.013l-15,10.689" style="fill:none;stroke:#000;stroke-width:6px;"/><path d="M423.254,348.668l-16,10.69" style="fill:none;stroke:#000;stroke-width:6px;"/><path d="M390.235,341.801l-17,10.689" style="fill:none;stroke:#000;stroke-width:6px;"/><path d="M692.143,389.578l-15,10.689" style="fill:none;stroke:#000;stroke-width:6px;"/><path d="M659.643,384.009l-18.354,8.282" style="fill:none;stroke:#000;stroke-width:6px;"/><path d="M615.334,374.257l-15,10.69" style="fill:none;stroke:#000;stroke-width:6px;"/><path d="M389.137,325.906l-18,9.689" style="fill:none;stroke:#000;stroke-width:6px;"/><path d="M454.754,339.903l-15,9.689" style="fill:none;stroke:#000;stroke-width:6px;"/><path d="M421.735,333.035l-17,9.69" style="fill:none;stroke:#000;stroke-width:6px;"/></g><g id="Hands"><path d="M264.398,283.327c0,0 652.887,137.559 651.274,137.559" style="fill:none;stroke:#000;stroke-width:12px;"/><g id="Hands-2" serif:id="Hands 2"><path d="M450.991,270.48c0,0 -64.509,10.816 -65.527,37.314c-1.019,26.498 39.236,40.556 71.724,13.478" style="fill:#fff;stroke:#000;stroke-width:12px;"/><path d="M690.807,327.094c0,0 -26.888,-34.728 -51.16,-24.049c-24.271,10.678 -23.065,41.587 -1.958,58.385" style="fill:none;stroke:#000;stroke-width:12px;"/></g><path d="M484.023,248.288c0,0 -21.561,1.967 -30.774,24.663c-9.214,22.695 7.5,48.931 22.68,53.916c15.179,4.985 15.653,4.35 15.653,4.35" style="fill:#fff;stroke:#000;stroke-width:12px;"/></g><g id="Monitor"><path d="M101.343,421.14l0,11.931l91.445,30.043l51.091,-37.043l0,-13.931" style="fill:#fff;stroke:#000;stroke-width:6px;"/><path d="M243.879,411.355l-92.441,-23.58l-50.095,33.15l91.441,27.581l51.095,-37.151Z" style="fill:#fff;stroke:#000;stroke-width:6px;"/><path d="M192.788,433.071l14.361,-11.203l0,-112.403l-23.646,-45.031" style="fill:#fff;stroke:#000;stroke-width:6px;"/><path d="M192.788,309.465l-51.354,-15l0,123.606l51.354,15l0,-123.606Z" style="fill:#fff;stroke:#000;stroke-width:6px;"/><path d="M28.567,14.516l-18.571,12.805l0,248.016l347.014,97.481l18.57,-12.805l0,-251.427l-347.013,-94.07Z" style="fill:#fff;stroke:#000;stroke-width:6px;"/><path d="M9.996,27.321l347.014,92.57l0,252.927l-347.014,-97.481l0,-248.016Z" style="fill:#fff;stroke:#000;stroke-width:6px;"/><path d="M357.01,119.368l18.57,-10.782" style="fill:none;stroke:#000;stroke-width:6px;"/><path d="M192.788,448.506l0,14.608" style="fill:none;stroke:#000;stroke-width:6px;"/></g></svg>